<?xml version="1.0" encoding="UTF-8" standalone="no"?>
<!-- Uploaded to: SVG Repo, www.svgrepo.com, Generator: SVG Repo Mixer Tools -->

<svg
   fill="#000000"
   width="800px"
   height="800px"
   viewBox="-3 0 32 32"
   version="1.1"
   id="svg6"
   sodipodi:docname="friend.svg"
   inkscape:version="1.1.2 (b8e25be833, 2022-02-05)"
   xmlns:inkscape="http://www.inkscape.org/namespaces/inkscape"
   xmlns:sodipodi="http://sodipodi.sourceforge.net/DTD/sodipodi-0.dtd"
   xmlns="http://www.w3.org/2000/svg"
   xmlns:svg="http://www.w3.org/2000/svg"
   xmlns:rdf="http://www.w3.org/1999/02/22-rdf-syntax-ns#"
   xmlns:cc="http://creativecommons.org/ns#"
   xmlns:dc="http://purl.org/dc/elements/1.1/">
  <defs
     id="defs10" />
  <sodipodi:namedview
     id="namedview8"
     pagecolor="#ffffff"
     bordercolor="#666666"
     borderopacity="1.0"
     inkscape:pageshadow="2"
     inkscape:pageopacity="0.0"
     inkscape:pagecheckerboard="0"
     showgrid="false"
     inkscape:zoom="1.12375"
     inkscape:cx="400"
     inkscape:cy="399.55506"
     inkscape:window-width="2560"
     inkscape:window-height="1369"
     inkscape:window-x="-8"
     inkscape:window-y="-8"
     inkscape:window-maximized="1"
     inkscape:current-layer="svg6" />
  <title
     id="title2">friend</title>
  <path
     d="M17.25 20.5c1.281 0.719 2 1.906 1.875 3.125-0.063 0.75-0.031 0.75-1 0.875-0.594 0.063-4.375 0.094-8.219 0.094-4.375 0-8.938-0.031-9.281-0.125-1.281-0.344-0.531-2.719 1.156-3.844 1.344-0.844 4.063-2.156 4.813-2.313 1.031-0.219 1.156-0.875 0-2.844-0.25-0.469-0.531-1.813-0.563-3.25-0.031-2.313 0.375-3.875 2.406-4.656 0.375-0.125 0.813-0.188 1.219-0.188 1.344 0 2.594 0.75 3.125 1.844 0.719 1.469 0.375 5.313-0.375 6.719-0.906 1.594-0.813 2.094 0.188 2.344 0.625 0.156 2.688 1.125 4.656 2.219zM24.094 18.531c1 0.531 1.563 1.5 1.469 2.438-0.031 0.563-0.031 0.594-0.781 0.688-0.375 0.063-2.344 0.094-4.656 0.094-0.406-0.969-1.188-1.844-2.25-2.406-1.219-0.688-2.656-1.406-3.75-1.875 0.719-0.344 1.344-0.625 1.625-0.688 0.781-0.188 0.875-0.625 0-2.188-0.219-0.375-0.469-1.438-0.5-2.563-0.031-1.813 0.375-3.063 1.938-3.656 0.313-0.094 0.656-0.156 0.969-0.156 1.031 0 2 0.563 2.406 1.438 0.531 1.156 0.281 4.156-0.281 5.281-0.688 1.25-0.625 1.625 0.156 1.813 0.5 0.125 2.094 0.906 3.656 1.781z"
     id="path4"
     style="fill:#ffffff;fill-opacity:1" />
  <metadata
     id="metadata827">
    <rdf:RDF>
      <cc:Work
         rdf:about="">
        <dc:title>friend</dc:title>
      </cc:Work>
    </rdf:RDF>
  </metadata>
</svg>
